<?xml version="1.0" encoding="UTF-8" standalone="no"?>
<!-- Created with Inkscape (http://www.inkscape.org/) -->

<svg
   xmlns:dc="http://purl.org/dc/elements/1.1/"
   xmlns:cc="http://creativecommons.org/ns#"
   xmlns:rdf="http://www.w3.org/1999/02/22-rdf-syntax-ns#"
   xmlns:svg="http://www.w3.org/2000/svg"
   xmlns="http://www.w3.org/2000/svg"
   xmlns:sodipodi="http://sodipodi.sourceforge.net/DTD/sodipodi-0.dtd"
   xmlns:inkscape="http://www.inkscape.org/namespaces/inkscape"
   width="210mm"
   height="297mm"
   viewBox="0 0 210 297"
   version="1.1"
   id="svg8"
   inkscape:version="0.92.3 (2405546, 2018-03-11)"
   sodipodi:docname="img1.svg">
  <defs
     id="defs2" />
  <sodipodi:namedview
     id="base"
     pagecolor="#ffffff"
     bordercolor="#666666"
     borderopacity="1.0"
     inkscape:pageopacity="0.0"
     inkscape:pageshadow="2"
     inkscape:zoom="0.7198092"
     inkscape:cx="168.31761"
     inkscape:cy="637.66898"
     inkscape:document-units="mm"
     inkscape:current-layer="layer1"
     showgrid="false"
     showguides="false"
     inkscape:window-width="1920"
     inkscape:window-height="1001"
     inkscape:window-x="-9"
     inkscape:window-y="1341"
     inkscape:window-maximized="1">
    <sodipodi:guide
       position="-91.525988,283.03219"
       orientation="1,0"
       id="guide4861"
       inkscape:locked="false" />
  </sodipodi:namedview>
  <metadata
     id="metadata5">
    <rdf:RDF>
      <cc:Work
         rdf:about="">
        <dc:format>image/svg+xml</dc:format>
        <dc:type
           rdf:resource="http://purl.org/dc/dcmitype/StillImage" />
        <dc:title />
      </cc:Work>
    </rdf:RDF>
  </metadata>
  <g
     inkscape:label="Layer 1"
     inkscape:groupmode="layer"
     id="layer1">
    <circle
       style="opacity:1;fill:none;fill-opacity:1;stroke:#000000;stroke-width:1.27;stroke-miterlimit:4;stroke-dasharray:none;stroke-opacity:0.97014928"
       id="path815"
       cx="104.84304"
       cy="138.48433"
       r="89.715103" />
    <path
       style="fill:#ff0000;stroke:#000000;stroke-width:0.59502465px;stroke-linecap:butt;stroke-linejoin:miter;stroke-opacity:1"
       d="M 62.486185,179.90483 C 149.18046,98.485048 149.18046,98.485048 149.18046,98.485048"
       id="path829-8-2"
       inkscape:connector-curvature="0" />
    <path
       style="fill:#ff0000;stroke:#000000;stroke-width:0.59502465px;stroke-linecap:butt;stroke-linejoin:miter;stroke-opacity:1"
       d="M 61.726022,98.489533 C 148.42873,179.90034 148.42873,179.90034 148.42873,179.90034"
       id="path829-8-2-3"
       inkscape:connector-curvature="0" />
    <path
       style="fill:#ff0000;stroke:#000000;stroke-width:0.59502465px;stroke-linecap:butt;stroke-linejoin:miter;stroke-opacity:1"
       d="M 88.07153,196.17799 C 122.08318,82.211878 122.08318,82.211878 122.08318,82.211878"
       id="path829-8-2-3-4"
       inkscape:connector-curvature="0" />
    <path
       style="fill:#ff0000;stroke:#000000;stroke-width:0.59502465px;stroke-linecap:butt;stroke-linejoin:miter;stroke-opacity:1"
       d="M 122.42695,196.29946 C 89.239726,82.090447 89.239726,82.090447 89.239726,82.090447"
       id="path829-8-2-4"
       inkscape:connector-curvature="0" />
    <path
       style="fill:#ff0000;stroke:#000000;stroke-width:0.59502465px;stroke-linecap:butt;stroke-linejoin:miter;stroke-opacity:1"
       d="M 47.971163,122.60723 C 162.18359,155.78264 162.18359,155.78264 162.18359,155.78264"
       id="path829-8-2-3-1"
       inkscape:connector-curvature="0" />
    <path
       style="fill:#ff0000;stroke:#000000;stroke-width:0.59502465px;stroke-linecap:butt;stroke-linejoin:miter;stroke-opacity:1"
       d="M 162.93786,122.60132 C 48.728853,155.78856 48.728853,155.78856 48.728853,155.78856"
       id="path829-8-2-7"
       inkscape:connector-curvature="0" />
    <ellipse
       style="opacity:1;fill:#000000;fill-opacity:1;stroke:#000000;stroke-width:0.31168056;stroke-miterlimit:4;stroke-dasharray:none;stroke-opacity:0.97014926"
       id="path4645"
       cx="60.118446"
       cy="96.697342"
       rx="2.3441598"
       ry="2.3441596" />
    <ellipse
       style="opacity:1;fill:#000000;fill-opacity:1;stroke:#000000;stroke-width:0.31168056;stroke-miterlimit:4;stroke-dasharray:none;stroke-opacity:0.97014926"
       id="path4645-7"
       cx="87.115105"
       cy="198.12253"
       rx="2.3441598"
       ry="2.3441596" />
    <ellipse
       style="opacity:1;fill:#000000;fill-opacity:1;stroke:#000000;stroke-width:0.31168056;stroke-miterlimit:4;stroke-dasharray:none;stroke-opacity:0.97014926"
       id="path4645-76"
       cx="61.017326"
       cy="181.21411"
       rx="2.3441598"
       ry="2.3441596" />
    <ellipse
       style="opacity:1;fill:#000000;fill-opacity:1;stroke:#000000;stroke-width:0.31168056;stroke-miterlimit:4;stroke-dasharray:none;stroke-opacity:0.97014926"
       id="path4645-3"
       cx="46.681931"
       cy="156.21906"
       rx="2.3441598"
       ry="2.3441596" />
    <ellipse
       style="opacity:1;fill:#000000;fill-opacity:1;stroke:#000000;stroke-width:0.31168056;stroke-miterlimit:4;stroke-dasharray:none;stroke-opacity:0.97014926"
       id="path4645-79"
       cx="46.314358"
       cy="121.66708"
       rx="2.3441598"
       ry="2.3441596" />
    <ellipse
       style="opacity:1;fill:#000000;fill-opacity:1;stroke:#000000;stroke-width:0.31168056;stroke-miterlimit:4;stroke-dasharray:none;stroke-opacity:0.97014926"
       id="path4645-2"
       cx="164.30569"
       cy="122.03465"
       rx="2.3441598"
       ry="2.3441596" />
    <ellipse
       style="opacity:1;fill:#000000;fill-opacity:1;stroke:#000000;stroke-width:0.31168056;stroke-miterlimit:4;stroke-dasharray:none;stroke-opacity:0.97014926"
       id="path4645-5"
       cx="150.70544"
       cy="97.407181"
       rx="2.3441598"
       ry="2.3441596" />
    <ellipse
       style="opacity:1;fill:#000000;fill-opacity:1;stroke:#000000;stroke-width:0.31168056;stroke-miterlimit:4;stroke-dasharray:none;stroke-opacity:0.97014926"
       id="path4645-1"
       cx="122.40223"
       cy="80.498764"
       rx="2.3441598"
       ry="2.3441596" />
    <ellipse
       style="opacity:1;fill:#000000;fill-opacity:1;stroke:#000000;stroke-width:0.31168056;stroke-miterlimit:4;stroke-dasharray:none;stroke-opacity:0.97014926"
       id="path4645-4"
       cx="88.585396"
       cy="81.23391"
       rx="2.3441598"
       ry="2.3441596" />
    <ellipse
       style="opacity:1;fill:#000000;fill-opacity:1;stroke:#000000;stroke-width:0.31168056;stroke-miterlimit:4;stroke-dasharray:none;stroke-opacity:0.97014926"
       id="path4645-77"
       cx="149.23514"
       cy="180.84653"
       rx="2.3441598"
       ry="2.3441596" />
    <ellipse
       style="opacity:1;fill:#000000;fill-opacity:1;stroke:#000000;stroke-width:0.31168056;stroke-miterlimit:4;stroke-dasharray:none;stroke-opacity:0.97014926"
       id="path4645-18"
       cx="123.13737"
       cy="197.75496"
       rx="2.3441598"
       ry="2.3441596" />
    <ellipse
       style="opacity:1;fill:#000000;fill-opacity:1;stroke:#000000;stroke-width:0.31168056;stroke-miterlimit:4;stroke-dasharray:none;stroke-opacity:0.97014926"
       id="path4645-761"
       cx="164.67326"
       cy="156.58664"
       rx="2.3441598"
       ry="2.3441596" />
    <text
       xml:space="preserve"
       style="font-style:normal;font-weight:normal;font-size:4.84558868px;line-height:1.25;font-family:sans-serif;letter-spacing:0px;word-spacing:0px;fill:#000000;fill-opacity:1;stroke:none;stroke-width:0.12113971"
       x="112.05354"
       y="74.669121"
       id="text4724"><tspan
         sodipodi:role="line"
         id="tspan4722"
         x="112.05354"
         y="74.669121"
         style="stroke-width:0.12113971">Multidimensionality</tspan></text>
    <text
       xml:space="preserve"
       style="font-style:normal;font-weight:normal;font-size:4.84558868px;line-height:1.25;font-family:sans-serif;letter-spacing:0px;word-spacing:0px;fill:#000000;fill-opacity:1;stroke:none;stroke-width:0.12113971"
       x="149.11044"
       y="93.246925"
       id="text4724-3"><tspan
         sodipodi:role="line"
         id="tspan4722-4"
         x="149.11044"
         y="93.246925"
         style="stroke-width:0.12113971">Originality</tspan></text>
    <text
       xml:space="preserve"
       style="font-style:normal;font-weight:normal;font-size:4.84558868px;line-height:1.25;font-family:sans-serif;letter-spacing:0px;word-spacing:0px;fill:#000000;fill-opacity:1;stroke:none;stroke-width:0.12113971"
       x="161.97554"
       y="116.03653"
       id="text4724-4"><tspan
         sodipodi:role="line"
         id="tspan4722-2"
         x="161.97554"
         y="116.03653"
         style="stroke-width:0.12113971">Novelty</tspan></text>
    <text
       xml:space="preserve"
       style="font-style:normal;font-weight:normal;font-size:4.84558868px;line-height:1.25;font-family:sans-serif;letter-spacing:0px;word-spacing:0px;fill:#000000;fill-opacity:1;stroke:none;stroke-width:0.12113971"
       x="70.796104"
       y="74.500633"
       id="text4724-4-1"><tspan
         sodipodi:role="line"
         id="tspan4722-2-5"
         x="70.796104"
         y="74.500633"
         style="stroke-width:0.12113971">Density</tspan></text>
    <text
       xml:space="preserve"
       style="font-style:normal;font-weight:normal;font-size:4.84558868px;line-height:1.25;font-family:sans-serif;letter-spacing:0px;word-spacing:0px;fill:#000000;fill-opacity:1;stroke:none;stroke-width:0.12113971"
       x="34.406242"
       y="91.40905"
       id="text4724-4-2"
       inkscape:transform-center-x="-29.405941"
       inkscape:transform-center-y="-10.659653"><tspan
         sodipodi:role="line"
         id="tspan4722-2-2"
         x="34.406242"
         y="91.40905"
         style="stroke-width:0.12113971">Functionality</tspan></text>
    <text
       xml:space="preserve"
       style="font-style:normal;font-weight:normal;font-size:4.84558868px;line-height:1.25;font-family:sans-serif;letter-spacing:0px;word-spacing:0px;fill:#000000;fill-opacity:1;stroke:none;stroke-width:0.12113971"
       x="44.698326"
       y="189.55139"
       id="text4724-4-5"
       inkscape:transform-center-x="-13.232673"
       inkscape:transform-center-y="-13.967822"><tspan
         sodipodi:role="line"
         id="tspan4722-2-3"
         x="44.698326"
         y="189.55139"
         style="stroke-width:0.12113971">Familiarity</tspan></text>
    <text
       xml:space="preserve"
       style="font-style:normal;font-weight:normal;font-size:4.84558868px;line-height:1.25;font-family:sans-serif;letter-spacing:0px;word-spacing:0px;fill:#000000;fill-opacity:1;stroke:none;stroke-width:0.12113971"
       x="162.68965"
       y="165.65906"
       id="text4724-4-9"><tspan
         sodipodi:role="line"
         id="tspan4722-2-6"
         x="162.68965"
         y="165.65906"
         style="stroke-width:0.12113971">Figuration</tspan></text>
    <text
       xml:space="preserve"
       style="font-style:normal;font-weight:normal;font-size:4.84558868px;line-height:1.25;font-family:sans-serif;letter-spacing:0px;word-spacing:0px;fill:#000000;fill-opacity:1;stroke:none;stroke-width:0.12113971"
       x="146.51639"
       y="190.6541"
       id="text4724-4-91"><tspan
         sodipodi:role="line"
         id="tspan4722-2-7"
         x="146.51639"
         y="190.6541"
         style="stroke-width:0.12113971">Decoration</tspan></text>
    <text
       xml:space="preserve"
       style="font-style:normal;font-weight:normal;font-size:4.84558868px;line-height:1.25;font-family:sans-serif;letter-spacing:0px;word-spacing:0px;fill:#000000;fill-opacity:1;stroke:none;stroke-width:0.12113971"
       x="119.3159"
       y="206.45979"
       id="text4724-4-16"><tspan
         sodipodi:role="line"
         id="tspan4722-2-24"
         x="119.3159"
         y="206.45979"
         style="stroke-width:0.12113971">Lightness</tspan></text>
    <text
       xml:space="preserve"
       style="font-style:normal;font-weight:normal;font-size:4.84558868px;line-height:1.25;font-family:sans-serif;letter-spacing:0px;word-spacing:0px;fill:#000000;fill-opacity:1;stroke:none;stroke-width:0.12113971"
       x="59.768867"
       y="206.45979"
       id="text4724-4-7"><tspan
         sodipodi:role="line"
         id="tspan4722-2-9"
         x="59.768867"
         y="206.45979"
         style="stroke-width:0.12113971">Unidimensionality</tspan></text>
    <text
       xml:space="preserve"
       style="font-style:normal;font-weight:normal;font-size:4.84558868px;line-height:1.25;font-family:sans-serif;letter-spacing:0px;word-spacing:0px;fill:#000000;fill-opacity:1;stroke:none;stroke-width:0.12113971"
       x="27.422335"
       y="163.82118"
       id="text4724-4-0"><tspan
         sodipodi:role="line"
         id="tspan4722-2-54"
         x="27.422335"
         y="163.82118"
         style="stroke-width:0.12113971">Redundancyy</tspan></text>
    <text
       xml:space="preserve"
       style="font-style:normal;font-weight:normal;font-size:4.84558868px;line-height:1.25;font-family:sans-serif;letter-spacing:0px;word-spacing:0px;fill:#000000;fill-opacity:1;stroke:none;stroke-width:0.12113971"
       x="28.686644"
       y="116.77166"
       id="text4724-4-56"><tspan
         sodipodi:role="line"
         id="tspan4722-2-0"
         x="28.686644"
         y="116.77166"
         style="stroke-width:0.12113971">Abstraction</tspan></text>
    <path
       style="fill:none;fill-opacity:1;stroke:#000000;stroke-width:1.57200003;stroke-linecap:butt;stroke-linejoin:miter;stroke-miterlimit:4;stroke-dasharray:none;stroke-opacity:1"
       d="m 9.9974128,123.09751 c 5.1198902,10.04602 5.1198902,10.04602 5.1198902,10.04602 l 6.289489,-8.80786 v 0"
       id="path4857"
       inkscape:connector-curvature="0" />
    <rect
       style="opacity:1;fill:#f5f5f5;fill-opacity:1;stroke:none;stroke-width:2.18359089;stroke-miterlimit:4;stroke-dasharray:none;stroke-opacity:0.97014926"
       id="rect4890"
       width="18.814283"
       height="9.7795067"
       x="6.2425456"
       y="133.98981" />
    <rect
       style="opacity:1;fill:#f5f5f5;fill-opacity:1;stroke:none;stroke-width:2.18359089;stroke-miterlimit:4;stroke-dasharray:none;stroke-opacity:0.97014926"
       id="rect4890-6"
       width="18.814283"
       height="9.7795067"
       x="183.20178"
       y="134.05331"
       inkscape:transform-center-x="179.00866"
       inkscape:transform-center-y="0.36757426" />
    <path
       style="fill:none;fill-opacity:1;stroke:#000000;stroke-width:1.57200015;stroke-linecap:butt;stroke-linejoin:miter;stroke-miterlimit:4;stroke-dasharray:none;stroke-opacity:1"
       d="m 22.656536,153.29105 c -7.398165,-8.509 -7.398165,-8.509 -7.398165,-8.509 l -3.971849,10.06781 v 0"
       id="path4857-4"
       inkscape:connector-curvature="0" />
    <path
       style="fill:none;fill-opacity:1;stroke:#000000;stroke-width:1.57200015;stroke-linecap:butt;stroke-linejoin:miter;stroke-miterlimit:4;stroke-dasharray:none;stroke-opacity:1"
       d="m 187.2835,124.68939 c 7.09667,8.76201 7.09667,8.76201 7.09667,8.76201 l 4.32079,-9.92305 v 0"
       id="path4857-1"
       inkscape:connector-curvature="0" />
    <path
       style="fill:none;fill-opacity:1;stroke:#000000;stroke-width:1.57200015;stroke-linecap:butt;stroke-linejoin:miter;stroke-miterlimit:4;stroke-dasharray:none;stroke-opacity:1"
       d="m 199.13274,154.94753 c -4.76617,-10.21858 -4.76617,-10.21858 -4.76617,-10.21858 l -6.59306,8.58301 v 0"
       id="path4857-6"
       inkscape:connector-curvature="0" />
    <text
       xml:space="preserve"
       style="font-style:normal;font-weight:normal;font-size:10.58333302px;line-height:1.25;font-family:sans-serif;letter-spacing:0px;word-spacing:0px;fill:#000000;fill-opacity:1;stroke:none;stroke-width:0.26458332"
       x="34.919552"
       y="243.33415"
       id="text4952"><tspan
         sodipodi:role="line"
         id="tspan4950"
         x="34.919552"
         y="243.33415"
         style="stroke-width:0.26458332">More intelligible and shallower</tspan></text>
    <text
       xml:space="preserve"
       style="font-style:normal;font-weight:normal;font-size:10.58333302px;line-height:1.25;font-family:sans-serif;letter-spacing:0px;word-spacing:0px;fill:#000000;fill-opacity:1;stroke:none;stroke-width:0.26458332"
       x="39.650074"
       y="41.155193"
       id="text4952-7"
       inkscape:transform-center-x="2.2054451"
       inkscape:transform-center-y="-0.36757428"><tspan
         sodipodi:role="line"
         id="tspan4950-2"
         x="39.650074"
         y="41.155193"
         style="stroke-width:0.26458332">More complex and deeper</tspan></text>
    <path
       style="fill:none;stroke:#000000;stroke-width:0.26458332px;stroke-linecap:butt;stroke-linejoin:miter;stroke-opacity:1"
       d="m 89.688119,134.53218 -12.12995,-21.31931 19.113859,-4.04332 11.394802,17.64357 14.3354,-4.04332 v 11.02723 l 20.95173,16.54084 -19.84901,5.88119 -5.88119,22.7896 H 92.996286 l -22.789602,-6.98391 2.573017,-23.15718 z"
       id="path867"
       inkscape:connector-curvature="0" />
    <path
       style="opacity:1;fill:#f5f5f5;fill-opacity:1;stroke:none;stroke-width:8.25415611;stroke-miterlimit:4;stroke-dasharray:none;stroke-opacity:0"
       d="m 266.95375,644.58834 c 0.38315,-2.20106 2.57779,-21.14774 4.87697,-42.10373 2.29919,-20.956 4.33077,-38.24132 4.51464,-38.41183 0.54977,-0.50983 115.57009,-33.77613 115.81419,-33.4959 0.27716,0.31821 -109.40229,103.48884 -118.98885,111.92757 l -6.91359,6.08581 z"
       id="path869"
       inkscape:connector-curvature="0"
       transform="scale(0.26458333)" />
    <path
       style="opacity:1;fill:#999999;fill-opacity:1;stroke:none;stroke-width:8.25415611;stroke-miterlimit:4;stroke-dasharray:none;stroke-opacity:0"
       d="m 266.96883,644.51289 c 0.37486,-2.15956 2.56271,-21.07229 4.86189,-42.02828 2.29919,-20.956 4.3309,-38.25238 4.51492,-38.4364 0.59838,-0.59838 115.50775,-33.81078 115.83779,-33.48074 0.40899,0.40898 -118.11934,111.9415 -122.56897,115.33468 l -3.32718,2.53722 z"
       id="path905"
       inkscape:connector-curvature="0"
       transform="scale(0.26458333)" />
    <path
       style="opacity:1;fill:#999999;fill-opacity:1;stroke:none;stroke-width:8.25415611;stroke-miterlimit:4;stroke-dasharray:none;stroke-opacity:0"
       d="m 308.93028,662.43763 c -31.25736,-9.65862 -38.26166,-12.26329 -36.81531,-13.69044 16.35636,-16.13927 118.58629,-111.096 118.85467,-110.39869 0.29207,0.75886 -32.54824,112.47501 -38.73234,131.75963 -0.79633,2.4833 -2.18085,4.45712 -3.0767,4.38628 -0.89586,-0.0709 -18.9995,-5.4964 -40.23032,-12.05678 z"
       id="path907"
       inkscape:connector-curvature="0"
       transform="scale(0.26458333)" />
    <path
       style="opacity:1;fill:#999999;fill-opacity:1;stroke:none;stroke-width:8.25415611;stroke-miterlimit:4;stroke-dasharray:none;stroke-opacity:0"
       d="m 355.17268,674.47602 c 0,-2.65437 41.89603,-142.19083 43.06582,-143.43249 0.61187,-0.64946 2.16059,2.47637 3.44159,6.94629 1.28101,4.46991 10.72103,37.03168 20.97782,72.35948 10.25679,35.3278 18.64871,64.5543 18.64871,64.94776 0,0.39348 -19.38014,0.71541 -43.06697,0.71541 -30.53563,0 -43.06697,-0.44706 -43.06697,-1.53645 z"
       id="path909"
       inkscape:connector-curvature="0"
       transform="scale(0.26458333)" />
    <path
       style="opacity:1;fill:#999999;fill-opacity:1;stroke:none;stroke-width:8.25415611;stroke-miterlimit:4;stroke-dasharray:none;stroke-opacity:0"
       d="m 443.44787,668.91771 c -2.17407,-5.98824 -38.07327,-131.09344 -37.71915,-131.44756 0.34793,-0.34793 13.73846,11.99804 57.54841,53.05923 1.49905,1.405 0.0429,8.65663 -8.12664,40.47157 -5.47411,21.31792 -10.18851,39.00564 -10.47644,39.30602 -0.28794,0.30039 -0.83972,-0.32478 -1.22618,-1.38926 z"
       id="path911"
       inkscape:connector-curvature="0"
       transform="scale(0.26458333)" />
    <path
       style="opacity:1;fill:#999999;fill-opacity:1;stroke:none;stroke-width:8.25415611;stroke-miterlimit:4;stroke-dasharray:none;stroke-opacity:0"
       d="m 436.09688,560.38461 c -16.23695,-15.36077 -29.20926,-28.24113 -28.82737,-28.62302 0.3819,-0.3819 29.43648,7.65668 64.56574,17.86351 35.12925,10.20684 63.67544,18.75381 63.43597,18.99328 -0.87285,0.87285 -65.94803,19.86832 -67.77277,19.78289 -1.03391,-0.0484 -15.16461,-12.6559 -31.40157,-28.01666 z"
       id="path913"
       inkscape:connector-curvature="0"
       transform="scale(0.26458333)" />
    <path
       style="opacity:1;fill:#999999;fill-opacity:1;stroke:none;stroke-width:8.25415611;stroke-miterlimit:4;stroke-dasharray:none;stroke-opacity:0"
       d="m 471.87027,546.01483 c -32.47388,-9.50396 -59.66859,-17.53949 -60.43268,-17.85672 -0.76409,-0.31723 16.18962,-0.62614 37.67491,-0.68646 l 39.06416,-0.10968 21.36852,16.79896 c 23.86494,18.76153 24.57343,19.36196 22.68831,19.22778 -0.72589,-0.0517 -27.88934,-7.86991 -60.36322,-17.37388 z"
       id="path915"
       inkscape:connector-curvature="0"
       transform="scale(0.26458333)" />
    <path
       style="opacity:1;fill:#999999;fill-opacity:1;stroke:none;stroke-width:8.25415611;stroke-miterlimit:4;stroke-dasharray:none;stroke-opacity:0"
       d="m 438.5281,516.84506 c 14.13569,-4.16367 26.32642,-7.29195 27.09051,-6.95175 0.76409,0.34021 5.4093,3.78467 10.32269,7.65436 l 8.93342,7.03578 -36.02394,-0.084 -36.02393,-0.084 z"
       id="path917"
       inkscape:connector-curvature="0"
       transform="scale(0.26458333)" />
    <path
       style="opacity:1;fill:#999999;fill-opacity:1;stroke:none;stroke-width:8.25415611;stroke-miterlimit:4;stroke-dasharray:none;stroke-opacity:0"
       d="m 412.13222,517.29265 c 2.67432,-2.63543 15.02134,-14.32911 27.43782,-25.98596 l 22.57543,-21.19425 v 18.20533 c 0,10.01294 -0.27037,18.20534 -0.60082,18.20534 -0.47451,0 -22.75763,6.38344 -51.49632,14.75214 -2.04029,0.59413 -1.48663,-0.464 2.08389,-3.9826 z"
       id="path919"
       inkscape:connector-curvature="0"
       transform="scale(0.26458333)" />
    <path
       style="opacity:1;fill:#999999;fill-opacity:1;stroke:none;stroke-width:8.25415611;stroke-miterlimit:4;stroke-dasharray:none;stroke-opacity:0"
       d="m 401.59489,518.28368 c 0.51092,-2.26581 3.26531,-11.93422 6.12087,-21.48537 l 5.19194,-17.36571 22.84786,-6.61045 c 12.56633,-3.63575 23.22841,-6.449 23.69353,-6.25166 0.46511,0.19734 -5.54954,6.41518 -13.3659,13.81742 -7.81636,7.40224 -13.85999,13.81019 -13.43029,14.23988 0.42969,0.4297 -0.13805,0.78127 -1.26164,0.78127 -1.1236,0 -4.19733,2.24396 -6.83052,4.98657 -2.63318,2.74262 -9.08672,8.81633 -14.34119,13.49714 -9.07647,8.08553 -9.50719,8.30482 -8.62466,4.39091 z"
       id="path921"
       inkscape:connector-curvature="0"
       transform="scale(0.26458333)" />
    <path
       style="opacity:1;fill:#999999;fill-opacity:1;stroke:none;stroke-width:8.25415611;stroke-miterlimit:4;stroke-dasharray:none;stroke-opacity:0"
       d="m 397.03353,509.0474 c -4.78431,-14.86601 -22.39483,-76.89317 -22.08605,-77.79073 0.20318,-0.59063 7.51532,10.00733 16.24919,23.55102 8.73387,13.5437 16.32115,24.80963 16.86063,25.03541 0.81164,0.33967 -7.84803,31.97571 -9.13488,33.37207 -0.22322,0.24222 -1.07322,-1.63328 -1.88889,-4.16777 z"
       id="path923"
       inkscape:connector-curvature="0"
       transform="scale(0.26458333)" />
    <path
       style="opacity:1;fill:#999999;fill-opacity:1;stroke:none;stroke-width:8.25415611;stroke-miterlimit:4;stroke-dasharray:none;stroke-opacity:0"
       d="m 346.83714,476.43088 c -27.12525,-25.5111 -49.19436,-46.83231 -49.04248,-47.38046 0.37742,-1.36213 66.17546,-15.38582 67.33139,-14.35051 1.06437,0.95331 32.0834,107.24674 31.4496,107.76888 -0.23094,0.19025 -22.61327,-20.52681 -49.73851,-46.03791 z"
       id="path925"
       inkscape:connector-curvature="0"
       transform="scale(0.26458333)" />
    <path
       style="opacity:1;fill:#999999;fill-opacity:1;stroke:none;stroke-width:8.25415611;stroke-miterlimit:4;stroke-dasharray:none;stroke-opacity:0"
       d="m 378.79005,518.99546 c -1.91023,-0.66048 -11.46236,-3.51516 -21.22696,-6.34372 l -17.75382,-5.14285 -18.88181,-33.20435 c -10.38499,-18.26239 -18.65008,-33.41395 -18.36686,-33.67013 0.46777,-0.42312 66.51866,61.13327 79.68216,74.2601 4.50968,4.49711 5.02503,5.50083 2.77851,5.4115 -1.51694,-0.0603 -4.32099,-0.65007 -6.23122,-1.31055 z"
       id="path927"
       inkscape:connector-curvature="0"
       transform="scale(0.26458333)" />
    <path
       style="opacity:1;fill:#999999;fill-opacity:1;stroke:none;stroke-width:8.25415611;stroke-miterlimit:4;stroke-dasharray:none;stroke-opacity:0"
       d="m 323.21977,524.05758 c 0,-0.28922 3.3669,-3.4023 7.482,-6.91794 l 7.48201,-6.39208 21.34508,6.23689 c 11.73979,3.43029 21.97024,6.49401 22.73433,6.80827 0.76409,0.31426 -12.2081,0.62073 -28.82708,0.68106 -16.61899,0.0603 -30.21634,-0.12697 -30.21634,-0.4162 z"
       id="path929"
       inkscape:connector-curvature="0"
       transform="scale(0.26458333)" />
    <path
       style="opacity:1;fill:#999999;fill-opacity:1;stroke:none;stroke-width:8.25415611;stroke-miterlimit:4;stroke-dasharray:none;stroke-opacity:0"
       d="m 283.62594,556.89586 c 0.76409,-0.71471 8.96634,-7.66331 18.22722,-15.44134 l 16.83797,-14.14188 34.23746,0.37198 34.23747,0.37198 -50.23592,14.5872 c -56.26924,16.33911 -55.24177,16.0644 -53.3042,14.25206 z"
       id="path931"
       inkscape:connector-curvature="0"
       transform="scale(0.26458333)" />
    <path
       style="fill:none;stroke:#000000;stroke-width:0.28194673;stroke-linecap:butt;stroke-linejoin:miter;stroke-miterlimit:4;stroke-dasharray:1.69168037,0.28194673;stroke-dashoffset:0;stroke-opacity:1"
       d="m 3.4579238,139.25377 c 203.0149862,0 203.8541462,-0.0884 203.8541462,-0.0884"
       id="path4859"
       inkscape:connector-curvature="0" />
  </g>
</svg>
