<?xml version="1.0" encoding="UTF-8" standalone="no"?>
<!-- Created with Inkscape (http://www.inkscape.org/) -->

<svg
   xmlns:dc="http://purl.org/dc/elements/1.1/"
   xmlns:cc="http://creativecommons.org/ns#"
   xmlns:rdf="http://www.w3.org/1999/02/22-rdf-syntax-ns#"
   xmlns:svg="http://www.w3.org/2000/svg"
   xmlns="http://www.w3.org/2000/svg"
   xmlns:sodipodi="http://sodipodi.sourceforge.net/DTD/sodipodi-0.dtd"
   xmlns:inkscape="http://www.inkscape.org/namespaces/inkscape"
   width="210mm"
   height="297mm"
   viewBox="0 0 210 297"
   version="1.1"
   id="svg8"
   inkscape:version="0.92.3 (2405546, 2018-03-11)"
   sodipodi:docname="img2.svg">
  <defs
     id="defs2" />
  <sodipodi:namedview
     id="base"
     pagecolor="#ffffff"
     bordercolor="#666666"
     borderopacity="1.0"
     inkscape:pageopacity="0.0"
     inkscape:pageshadow="2"
     inkscape:zoom="0.7198092"
     inkscape:cx="168.31761"
     inkscape:cy="582.0987"
     inkscape:document-units="mm"
     inkscape:current-layer="layer1"
     showgrid="false"
     showguides="false"
     inkscape:window-width="1920"
     inkscape:window-height="1001"
     inkscape:window-x="-9"
     inkscape:window-y="1341"
     inkscape:window-maximized="1">
    <sodipodi:guide
       position="-91.525988,283.03219"
       orientation="1,0"
       id="guide4861"
       inkscape:locked="false" />
  </sodipodi:namedview>
  <metadata
     id="metadata5">
    <rdf:RDF>
      <cc:Work
         rdf:about="">
        <dc:format>image/svg+xml</dc:format>
        <dc:type
           rdf:resource="http://purl.org/dc/dcmitype/StillImage" />
        <dc:title />
      </cc:Work>
    </rdf:RDF>
  </metadata>
  <g
     inkscape:label="Layer 1"
     inkscape:groupmode="layer"
     id="layer1">
    <circle
       style="opacity:1;fill:none;fill-opacity:1;stroke:#000000;stroke-width:1.27;stroke-miterlimit:4;stroke-dasharray:none;stroke-opacity:0.97014928"
       id="path815"
       cx="104.84304"
       cy="138.48433"
       r="89.715103" />
    <path
       style="fill:#ff0000;stroke:#000000;stroke-width:0.59502465px;stroke-linecap:butt;stroke-linejoin:miter;stroke-opacity:1"
       d="M 62.486185,179.90483 C 149.18046,98.485048 149.18046,98.485048 149.18046,98.485048"
       id="path829-8-2"
       inkscape:connector-curvature="0" />
    <path
       style="fill:#ff0000;stroke:#000000;stroke-width:0.59502465px;stroke-linecap:butt;stroke-linejoin:miter;stroke-opacity:1"
       d="M 61.726022,98.489533 C 148.42873,179.90034 148.42873,179.90034 148.42873,179.90034"
       id="path829-8-2-3"
       inkscape:connector-curvature="0" />
    <path
       style="fill:#ff0000;stroke:#000000;stroke-width:0.59502465px;stroke-linecap:butt;stroke-linejoin:miter;stroke-opacity:1"
       d="M 88.07153,196.17799 C 122.08318,82.211878 122.08318,82.211878 122.08318,82.211878"
       id="path829-8-2-3-4"
       inkscape:connector-curvature="0" />
    <path
       style="fill:#ff0000;stroke:#000000;stroke-width:0.59502465px;stroke-linecap:butt;stroke-linejoin:miter;stroke-opacity:1"
       d="M 122.42695,196.29946 C 89.239726,82.090447 89.239726,82.090447 89.239726,82.090447"
       id="path829-8-2-4"
       inkscape:connector-curvature="0" />
    <path
       style="fill:#ff0000;stroke:#000000;stroke-width:0.59502465px;stroke-linecap:butt;stroke-linejoin:miter;stroke-opacity:1"
       d="M 47.971163,122.60723 C 162.18359,155.78264 162.18359,155.78264 162.18359,155.78264"
       id="path829-8-2-3-1"
       inkscape:connector-curvature="0" />
    <path
       style="fill:#ff0000;stroke:#000000;stroke-width:0.59502465px;stroke-linecap:butt;stroke-linejoin:miter;stroke-opacity:1"
       d="M 162.93786,122.60132 C 48.728853,155.78856 48.728853,155.78856 48.728853,155.78856"
       id="path829-8-2-7"
       inkscape:connector-curvature="0" />
    <ellipse
       style="opacity:1;fill:#000000;fill-opacity:1;stroke:#000000;stroke-width:0.31168056;stroke-miterlimit:4;stroke-dasharray:none;stroke-opacity:0.97014926"
       id="path4645"
       cx="60.118446"
       cy="96.697342"
       rx="2.3441598"
       ry="2.3441596" />
    <ellipse
       style="opacity:1;fill:#000000;fill-opacity:1;stroke:#000000;stroke-width:0.31168056;stroke-miterlimit:4;stroke-dasharray:none;stroke-opacity:0.97014926"
       id="path4645-7"
       cx="87.115105"
       cy="198.12253"
       rx="2.3441598"
       ry="2.3441596" />
    <ellipse
       style="opacity:1;fill:#000000;fill-opacity:1;stroke:#000000;stroke-width:0.31168056;stroke-miterlimit:4;stroke-dasharray:none;stroke-opacity:0.97014926"
       id="path4645-76"
       cx="61.017326"
       cy="181.21411"
       rx="2.3441598"
       ry="2.3441596" />
    <ellipse
       style="opacity:1;fill:#000000;fill-opacity:1;stroke:#000000;stroke-width:0.31168056;stroke-miterlimit:4;stroke-dasharray:none;stroke-opacity:0.97014926"
       id="path4645-3"
       cx="46.681931"
       cy="156.21906"
       rx="2.3441598"
       ry="2.3441596" />
    <ellipse
       style="opacity:1;fill:#000000;fill-opacity:1;stroke:#000000;stroke-width:0.31168056;stroke-miterlimit:4;stroke-dasharray:none;stroke-opacity:0.97014926"
       id="path4645-79"
       cx="46.314358"
       cy="121.66708"
       rx="2.3441598"
       ry="2.3441596" />
    <ellipse
       style="opacity:1;fill:#000000;fill-opacity:1;stroke:#000000;stroke-width:0.31168056;stroke-miterlimit:4;stroke-dasharray:none;stroke-opacity:0.97014926"
       id="path4645-2"
       cx="164.30569"
       cy="122.03465"
       rx="2.3441598"
       ry="2.3441596" />
    <ellipse
       style="opacity:1;fill:#000000;fill-opacity:1;stroke:#000000;stroke-width:0.31168056;stroke-miterlimit:4;stroke-dasharray:none;stroke-opacity:0.97014926"
       id="path4645-5"
       cx="150.70544"
       cy="97.407181"
       rx="2.3441598"
       ry="2.3441596" />
    <ellipse
       style="opacity:1;fill:#000000;fill-opacity:1;stroke:#000000;stroke-width:0.31168056;stroke-miterlimit:4;stroke-dasharray:none;stroke-opacity:0.97014926"
       id="path4645-1"
       cx="122.40223"
       cy="80.498764"
       rx="2.3441598"
       ry="2.3441596" />
    <ellipse
       style="opacity:1;fill:#000000;fill-opacity:1;stroke:#000000;stroke-width:0.31168056;stroke-miterlimit:4;stroke-dasharray:none;stroke-opacity:0.97014926"
       id="path4645-4"
       cx="88.585396"
       cy="81.23391"
       rx="2.3441598"
       ry="2.3441596" />
    <ellipse
       style="opacity:1;fill:#000000;fill-opacity:1;stroke:#000000;stroke-width:0.31168056;stroke-miterlimit:4;stroke-dasharray:none;stroke-opacity:0.97014926"
       id="path4645-77"
       cx="149.23514"
       cy="180.84653"
       rx="2.3441598"
       ry="2.3441596" />
    <ellipse
       style="opacity:1;fill:#000000;fill-opacity:1;stroke:#000000;stroke-width:0.31168056;stroke-miterlimit:4;stroke-dasharray:none;stroke-opacity:0.97014926"
       id="path4645-18"
       cx="123.13737"
       cy="197.75496"
       rx="2.3441598"
       ry="2.3441596" />
    <ellipse
       style="opacity:1;fill:#000000;fill-opacity:1;stroke:#000000;stroke-width:0.31168056;stroke-miterlimit:4;stroke-dasharray:none;stroke-opacity:0.97014926"
       id="path4645-761"
       cx="164.67326"
       cy="156.58664"
       rx="2.3441598"
       ry="2.3441596" />
    <text
       xml:space="preserve"
       style="font-style:normal;font-weight:normal;font-size:4.84558868px;line-height:1.25;font-family:sans-serif;letter-spacing:0px;word-spacing:0px;fill:#000000;fill-opacity:1;stroke:none;stroke-width:0.12113971"
       x="112.05354"
       y="74.669121"
       id="text4724"><tspan
         sodipodi:role="line"
         id="tspan4722"
         x="112.05354"
         y="74.669121"
         style="stroke-width:0.12113971">Multidimensionality</tspan></text>
    <text
       xml:space="preserve"
       style="font-style:normal;font-weight:normal;font-size:4.84558868px;line-height:1.25;font-family:sans-serif;letter-spacing:0px;word-spacing:0px;fill:#000000;fill-opacity:1;stroke:none;stroke-width:0.12113971"
       x="149.11044"
       y="93.246925"
       id="text4724-3"><tspan
         sodipodi:role="line"
         id="tspan4722-4"
         x="149.11044"
         y="93.246925"
         style="stroke-width:0.12113971">Originality</tspan></text>
    <text
       xml:space="preserve"
       style="font-style:normal;font-weight:normal;font-size:4.84558868px;line-height:1.25;font-family:sans-serif;letter-spacing:0px;word-spacing:0px;fill:#000000;fill-opacity:1;stroke:none;stroke-width:0.12113971"
       x="161.97554"
       y="116.03653"
       id="text4724-4"><tspan
         sodipodi:role="line"
         id="tspan4722-2"
         x="161.97554"
         y="116.03653"
         style="stroke-width:0.12113971">Novelty</tspan></text>
    <text
       xml:space="preserve"
       style="font-style:normal;font-weight:normal;font-size:4.84558868px;line-height:1.25;font-family:sans-serif;letter-spacing:0px;word-spacing:0px;fill:#000000;fill-opacity:1;stroke:none;stroke-width:0.12113971"
       x="70.796104"
       y="74.500633"
       id="text4724-4-1"><tspan
         sodipodi:role="line"
         id="tspan4722-2-5"
         x="70.796104"
         y="74.500633"
         style="stroke-width:0.12113971">Density</tspan></text>
    <text
       xml:space="preserve"
       style="font-style:normal;font-weight:normal;font-size:4.84558868px;line-height:1.25;font-family:sans-serif;letter-spacing:0px;word-spacing:0px;fill:#000000;fill-opacity:1;stroke:none;stroke-width:0.12113971"
       x="34.406242"
       y="91.40905"
       id="text4724-4-2"
       inkscape:transform-center-x="-29.405941"
       inkscape:transform-center-y="-10.659653"><tspan
         sodipodi:role="line"
         id="tspan4722-2-2"
         x="34.406242"
         y="91.40905"
         style="stroke-width:0.12113971">Functionality</tspan></text>
    <text
       xml:space="preserve"
       style="font-style:normal;font-weight:normal;font-size:4.84558868px;line-height:1.25;font-family:sans-serif;letter-spacing:0px;word-spacing:0px;fill:#000000;fill-opacity:1;stroke:none;stroke-width:0.12113971"
       x="44.698326"
       y="189.55139"
       id="text4724-4-5"
       inkscape:transform-center-x="-13.232673"
       inkscape:transform-center-y="-13.967822"><tspan
         sodipodi:role="line"
         id="tspan4722-2-3"
         x="44.698326"
         y="189.55139"
         style="stroke-width:0.12113971">Familiarity</tspan></text>
    <text
       xml:space="preserve"
       style="font-style:normal;font-weight:normal;font-size:4.84558868px;line-height:1.25;font-family:sans-serif;letter-spacing:0px;word-spacing:0px;fill:#000000;fill-opacity:1;stroke:none;stroke-width:0.12113971"
       x="162.68965"
       y="165.65906"
       id="text4724-4-9"><tspan
         sodipodi:role="line"
         id="tspan4722-2-6"
         x="162.68965"
         y="165.65906"
         style="stroke-width:0.12113971">Figuration</tspan></text>
    <text
       xml:space="preserve"
       style="font-style:normal;font-weight:normal;font-size:4.84558868px;line-height:1.25;font-family:sans-serif;letter-spacing:0px;word-spacing:0px;fill:#000000;fill-opacity:1;stroke:none;stroke-width:0.12113971"
       x="146.51639"
       y="190.6541"
       id="text4724-4-91"><tspan
         sodipodi:role="line"
         id="tspan4722-2-7"
         x="146.51639"
         y="190.6541"
         style="stroke-width:0.12113971">Decoration</tspan></text>
    <text
       xml:space="preserve"
       style="font-style:normal;font-weight:normal;font-size:4.84558868px;line-height:1.25;font-family:sans-serif;letter-spacing:0px;word-spacing:0px;fill:#000000;fill-opacity:1;stroke:none;stroke-width:0.12113971"
       x="119.3159"
       y="206.45979"
       id="text4724-4-16"><tspan
         sodipodi:role="line"
         id="tspan4722-2-24"
         x="119.3159"
         y="206.45979"
         style="stroke-width:0.12113971">Lightness</tspan></text>
    <text
       xml:space="preserve"
       style="font-style:normal;font-weight:normal;font-size:4.84558868px;line-height:1.25;font-family:sans-serif;letter-spacing:0px;word-spacing:0px;fill:#000000;fill-opacity:1;stroke:none;stroke-width:0.12113971"
       x="59.768867"
       y="206.45979"
       id="text4724-4-7"><tspan
         sodipodi:role="line"
         id="tspan4722-2-9"
         x="59.768867"
         y="206.45979"
         style="stroke-width:0.12113971">Unidimensionality</tspan></text>
    <text
       xml:space="preserve"
       style="font-style:normal;font-weight:normal;font-size:4.84558868px;line-height:1.25;font-family:sans-serif;letter-spacing:0px;word-spacing:0px;fill:#000000;fill-opacity:1;stroke:none;stroke-width:0.12113971"
       x="27.422335"
       y="163.82118"
       id="text4724-4-0"><tspan
         sodipodi:role="line"
         id="tspan4722-2-54"
         x="27.422335"
         y="163.82118"
         style="stroke-width:0.12113971">Redundancyy</tspan></text>
    <text
       xml:space="preserve"
       style="font-style:normal;font-weight:normal;font-size:4.84558868px;line-height:1.25;font-family:sans-serif;letter-spacing:0px;word-spacing:0px;fill:#000000;fill-opacity:1;stroke:none;stroke-width:0.12113971"
       x="28.686644"
       y="116.77166"
       id="text4724-4-56"><tspan
         sodipodi:role="line"
         id="tspan4722-2-0"
         x="28.686644"
         y="116.77166"
         style="stroke-width:0.12113971">Absctraction</tspan></text>
    <path
       style="fill:none;fill-opacity:1;stroke:#000000;stroke-width:1.57200003;stroke-linecap:butt;stroke-linejoin:miter;stroke-miterlimit:4;stroke-dasharray:none;stroke-opacity:1"
       d="m 9.9974128,123.09751 c 5.1198902,10.04602 5.1198902,10.04602 5.1198902,10.04602 l 6.289489,-8.80786 v 0"
       id="path4857"
       inkscape:connector-curvature="0" />
    <rect
       style="opacity:1;fill:#f5f5f5;fill-opacity:1;stroke:none;stroke-width:2.18359089;stroke-miterlimit:4;stroke-dasharray:none;stroke-opacity:0.97014926"
       id="rect4890"
       width="18.814283"
       height="9.7795067"
       x="6.2425456"
       y="133.98981" />
    <rect
       style="opacity:1;fill:#f5f5f5;fill-opacity:1;stroke:none;stroke-width:2.18359089;stroke-miterlimit:4;stroke-dasharray:none;stroke-opacity:0.97014926"
       id="rect4890-6"
       width="18.814283"
       height="9.7795067"
       x="183.20178"
       y="134.05331"
       inkscape:transform-center-x="179.00866"
       inkscape:transform-center-y="0.36757426" />
    <path
       style="fill:none;fill-opacity:1;stroke:#000000;stroke-width:1.57200015;stroke-linecap:butt;stroke-linejoin:miter;stroke-miterlimit:4;stroke-dasharray:none;stroke-opacity:1"
       d="m 22.656536,153.29105 c -7.398165,-8.509 -7.398165,-8.509 -7.398165,-8.509 l -3.971849,10.06781 v 0"
       id="path4857-4"
       inkscape:connector-curvature="0" />
    <path
       style="fill:none;fill-opacity:1;stroke:#000000;stroke-width:1.57200015;stroke-linecap:butt;stroke-linejoin:miter;stroke-miterlimit:4;stroke-dasharray:none;stroke-opacity:1"
       d="m 187.2835,124.68939 c 7.09667,8.76201 7.09667,8.76201 7.09667,8.76201 l 4.32079,-9.92305 v 0"
       id="path4857-1"
       inkscape:connector-curvature="0" />
    <path
       style="fill:none;fill-opacity:1;stroke:#000000;stroke-width:1.57200015;stroke-linecap:butt;stroke-linejoin:miter;stroke-miterlimit:4;stroke-dasharray:none;stroke-opacity:1"
       d="m 199.13274,154.94753 c -4.76617,-10.21858 -4.76617,-10.21858 -4.76617,-10.21858 l -6.59306,8.58301 v 0"
       id="path4857-6"
       inkscape:connector-curvature="0" />
    <text
       xml:space="preserve"
       style="font-style:normal;font-weight:normal;font-size:10.58333302px;line-height:1.25;font-family:sans-serif;letter-spacing:0px;word-spacing:0px;fill:#000000;fill-opacity:1;stroke:none;stroke-width:0.26458332"
       x="26.465345"
       y="243.33415"
       id="text4952"><tspan
         sodipodi:role="line"
         id="tspan4950"
         x="26.465345"
         y="243.33415"
         style="stroke-width:0.26458332">More intelligible and shallower</tspan></text>
    <text
       xml:space="preserve"
       style="font-style:normal;font-weight:normal;font-size:10.58333302px;line-height:1.25;font-family:sans-serif;letter-spacing:0px;word-spacing:0px;fill:#000000;fill-opacity:1;stroke:none;stroke-width:0.26458332"
       x="38.547352"
       y="40.787621"
       id="text4952-7"
       inkscape:transform-center-x="2.2054451"
       inkscape:transform-center-y="-0.36757428"><tspan
         sodipodi:role="line"
         id="tspan4950-2"
         x="38.547352"
         y="40.787621"
         style="stroke-width:0.26458332">More complex and deeper</tspan></text>
    <path
       style="fill:none;stroke:#000000;stroke-width:0.28175867;stroke-linecap:butt;stroke-linejoin:miter;stroke-miterlimit:4;stroke-dasharray:1.12703472, 0.28175867999999998;stroke-dashoffset:0;stroke-opacity:1"
       d="m 3.729765,139.25377 c 202.744265,0 203.582305,-0.0884 203.582305,-0.0884"
       id="path4859"
       inkscape:connector-curvature="0" />
    <path
       style="fill:none;stroke:#000000;stroke-width:0.26458332px;stroke-linecap:butt;stroke-linejoin:miter;stroke-opacity:1"
       d="m 72.044554,129.38614 c -4.778465,-25.7302 -4.778465,-25.7302 -4.778465,-25.7302 l 25.730197,-8.454209 20.951734,12.129949 6.98391,17.64357 2.20545,9.18935 13.96782,13.60025 -20.58416,0.73515 -5.14604,11.02722 -11.394802,-2.20544 -26.832922,12.12995 13.967823,-24.99505 z"
       id="path868"
       inkscape:connector-curvature="0" />
    <path
       style="opacity:1;fill:#999999;fill-opacity:1;stroke:none;stroke-width:1.3914448;stroke-miterlimit:4;stroke-dasharray:5.56577913, 1.39144477;stroke-dashoffset:0;stroke-opacity:0"
       d="m 283.90379,630.74458 c 0,-0.55717 10.15894,-19.26009 22.57543,-41.56204 l 22.57543,-40.549 31.25828,-9.1234 c 17.19206,-5.01786 31.39151,-8.99347 31.55435,-8.83469 0.37752,0.36813 -98.60522,93.53761 -103.96132,97.85566 -2.20119,1.77458 -4.00217,2.77065 -4.00217,2.21347 z"
       id="path882"
       inkscape:connector-curvature="0"
       transform="scale(0.26458333)" />
    <path
       style="opacity:1;fill:#999999;fill-opacity:1;stroke:none;stroke-width:1.3914448;stroke-miterlimit:4;stroke-dasharray:5.56577913, 1.39144477;stroke-dashoffset:0;stroke-opacity:0"
       d="m 320.7191,535.69751 -8.24856,-8.33554 37.46645,0.10968 c 20.60655,0.0603 36.84129,0.36542 36.0772,0.678 -3.16343,1.29411 -54.20014,15.8834 -55.5638,15.8834 -0.8155,0 -5.19458,-3.75099 -9.73129,-8.33554 z"
       id="path884"
       inkscape:connector-curvature="0"
       transform="scale(0.26458333)" />
    <path
       style="opacity:1;fill:#999999;fill-opacity:1;stroke:none;stroke-width:1.3914448;stroke-miterlimit:4;stroke-dasharray:5.56577913, 1.39144477;stroke-dashoffset:0;stroke-opacity:0"
       d="m 294.29953,509.16158 c -8.39198,-8.48204 -14.00781,-15.07445 -12.47962,-14.6498 18.77218,5.21631 100.17201,29.09575 100.60536,29.51357 0.31837,0.30696 -15.9466,0.5581 -36.14438,0.5581 h -36.72323 z"
       id="path886"
       inkscape:connector-curvature="0"
       transform="scale(0.26458333)" />
    <path
       style="opacity:1;fill:#999999;fill-opacity:1;stroke:none;stroke-width:1.3914448;stroke-miterlimit:4;stroke-dasharray:5.56577913, 1.39144477;stroke-dashoffset:0;stroke-opacity:0"
       d="m 330.46155,504.93108 c -31.31804,-9.16551 -57.02358,-16.77669 -57.12342,-16.91375 -0.35619,-0.48894 -16.91652,-90.55587 -16.6967,-90.80859 0.12328,-0.14173 24.59384,22.61095 54.37902,50.56151 29.78519,27.95056 59.74915,56.04269 66.58659,62.42695 6.83744,6.38426 11.83877,11.56065 11.11406,11.50309 -0.72471,-0.0576 -26.94151,-7.6037 -58.25955,-16.76921 z"
       id="path888"
       inkscape:connector-curvature="0"
       transform="scale(0.26458333)" />
    <path
       style="opacity:1;fill:#999999;fill-opacity:1;stroke:none;stroke-width:1.3914448;stroke-miterlimit:4;stroke-dasharray:5.56577913, 1.39144477;stroke-dashoffset:0;stroke-opacity:0"
       d="m 326.21769,456.97506 -69.14973,-64.96991 46.20776,-15.07163 c 25.41426,-8.28939 46.50394,-14.77543 46.86596,-14.41342 1.15506,1.15506 46.47531,158.17528 45.83767,158.81292 -0.33656,0.33658 -31.72931,-28.62451 -69.76166,-64.35796 z"
       id="path890"
       inkscape:connector-curvature="0"
       transform="scale(0.26458333)" />
    <path
       style="opacity:1;fill:#999999;fill-opacity:1;stroke:none;stroke-width:1.3914448;stroke-miterlimit:4;stroke-dasharray:5.56577913, 1.39144477;stroke-dashoffset:0;stroke-opacity:0"
       d="m 376.67637,439.44584 c -12.01262,-41.34315 -21.68177,-75.32873 -21.487,-75.5235 0.96491,-0.96491 73.94791,42.50293 74.29634,44.25004 0.29805,1.49451 -29.65679,104.85976 -30.78133,106.21723 -0.10279,0.12407 -10.01539,-33.60062 -22.02801,-74.94377 z"
       id="path892"
       inkscape:connector-curvature="0"
       transform="scale(0.26458333)" />
    <path
       style="opacity:1;fill:#999999;fill-opacity:1;stroke:none;stroke-width:1.3914448;stroke-miterlimit:4;stroke-dasharray:5.56577913, 1.39144477;stroke-dashoffset:0;stroke-opacity:0"
       d="m 400.60138,521.3559 c 0,-0.70443 30.46338,-102.80047 31.36999,-105.13449 0.8447,-2.17463 23.08969,52.29521 22.46641,55.01201 -0.35701,1.55617 -51.85637,50.57152 -53.1344,50.57152 -0.3861,0 -0.702,-0.20207 -0.702,-0.44904 z"
       id="path894"
       inkscape:connector-curvature="0"
       transform="scale(0.26458333)" />
    <path
       style="opacity:1;fill:#999999;fill-opacity:1;stroke:none;stroke-width:1.3914448;stroke-miterlimit:4;stroke-dasharray:5.56577913, 1.39144477;stroke-dashoffset:0;stroke-opacity:0"
       d="m 408.2423,520.80253 c 31.27164,-29.59345 48.08726,-45.11881 48.40383,-44.68982 0.91666,1.24217 6.91589,29.03446 6.37142,29.51653 -0.46142,0.40853 -37.39774,11.28294 -53.386,15.71736 -1.77804,0.49315 -2.27828,0.29724 -1.38925,-0.54407 z"
       id="path896"
       inkscape:connector-curvature="0"
       transform="scale(0.26458333)" />
    <path
       style="opacity:1;fill:#999999;fill-opacity:1;stroke:none;stroke-width:1.3914448;stroke-miterlimit:4;stroke-dasharray:5.56577913, 1.39144477;stroke-dashoffset:0;stroke-opacity:0"
       d="m 414.60973,524.0424 c 0.31837,-0.29758 12.02521,-3.8484 26.01521,-7.89071 l 25.43635,-7.34966 7.89072,7.89071 7.89071,7.89071 h -33.90593 c -18.64826,0 -33.64544,-0.24347 -33.32706,-0.54105 z"
       id="path898"
       inkscape:connector-curvature="0"
       transform="scale(0.26458333)" />
    <path
       style="opacity:1;fill:#999999;fill-opacity:1;stroke:none;stroke-width:1.3914448;stroke-miterlimit:4;stroke-dasharray:5.56577913, 1.39144477;stroke-dashoffset:0;stroke-opacity:0"
       d="m 460.58651,542.83643 -50.46082,-14.77983 37.23187,-0.3706 37.23186,-0.37061 15.30512,15.30512 c 8.41781,8.41781 14.37084,15.23551 13.22895,15.15043 -1.1419,-0.0851 -24.78354,-6.8056 -52.53698,-14.93451 z"
       id="path900"
       inkscape:connector-curvature="0"
       transform="scale(0.26458333)" />
    <path
       style="opacity:1;fill:#999999;fill-opacity:1;stroke:none;stroke-width:1.3914448;stroke-miterlimit:4;stroke-dasharray:5.56577913, 1.39144477;stroke-dashoffset:0;stroke-opacity:0"
       d="m 421.42013,546.44925 c -9.09701,-8.52145 -16.40486,-15.62871 -16.23967,-15.7939 0.16519,-0.16519 21.16874,5.74675 46.67455,13.13765 l 46.3742,13.438 -8.87277,0.87956 c -4.88003,0.48375 -16.37889,0.95263 -25.55303,1.04194 -9.17414,0.0893 -18.74193,0.75366 -21.26176,1.47634 -4.49308,1.2886 -4.90071,1.01494 -21.12152,-14.17959 z"
       id="path902"
       inkscape:connector-curvature="0"
       transform="scale(0.26458333)" />
    <path
       style="opacity:1;fill:#999999;fill-opacity:1;stroke:none;stroke-width:1.3914448;stroke-miterlimit:4;stroke-dasharray:5.56577913, 1.39144477;stroke-dashoffset:0;stroke-opacity:0"
       d=""
       id="path904"
       inkscape:connector-curvature="0"
       transform="scale(0.26458333)" />
    <path
       style="opacity:1;fill:#999999;fill-opacity:1;stroke:none;stroke-width:1.3914448;stroke-miterlimit:4;stroke-dasharray:5.56577913, 1.39144477;stroke-dashoffset:0;stroke-opacity:0"
       d="m 396.3591,597.02599 -17.44022,-3.67431 9.25368,-30.9442 c 5.08952,-17.0193 9.64079,-31.3313 10.11392,-31.80444 1.07541,-1.07541 0.44446,-3.02122 11.33726,34.9635 5.03969,17.5741 9.42789,32.73437 9.75156,33.68948 0.81287,2.39873 -2.62817,2.06532 -23.0162,-2.23003 z"
       id="path906"
       inkscape:connector-curvature="0"
       transform="scale(0.26458333)" />
    <path
       style="opacity:1;fill:#999999;fill-opacity:1;stroke:none;stroke-width:1.3914448;stroke-miterlimit:4;stroke-dasharray:5.56577913, 1.39144477;stroke-dashoffset:0;stroke-opacity:0"
       d="m 413.50875,566.19492 c -4.64334,-16.08235 -7.97542,-29.05454 -7.40463,-28.82708 0.5708,0.22746 7.74269,6.74658 15.93754,14.48694 l 14.89974,14.07339 -6.9593,14.7537 c -3.82761,8.11453 -7.20041,14.75369 -7.49511,14.75369 -0.29469,0 -4.3349,-13.15829 -8.97824,-29.24064 z"
       id="path908"
       inkscape:connector-curvature="0"
       transform="scale(0.26458333)" />
    <path
       style="opacity:1;fill:#999999;fill-opacity:1;stroke:none;stroke-width:1.3914448;stroke-miterlimit:4;stroke-dasharray:5.56577913, 1.39144477;stroke-dashoffset:0;stroke-opacity:0"
       d="m 292.27091,629.65822 c 34.97318,-33.4053 97.57989,-91.28181 98.13822,-90.72348 0.40746,0.40746 -2.92617,13.10732 -7.40807,28.22191 l -8.14889,27.48107 -42.22596,19.15389 c -23.22427,10.53464 -42.57941,19.15389 -43.01141,19.15389 -0.432,0 0.76325,-1.47927 2.65611,-3.28728 z"
       id="path910"
       inkscape:connector-curvature="0"
       transform="scale(0.26458333)" />
  </g>
</svg>
